# xmcd
#
# Track frame offsets:
#	150
#	19202
#	39030
#	55000
#	73005
#	88495
#	101285
#	124972
#	136740
#	151300
#	172985
#	188100
#	201987
#
# Disc length: 2894 seconds
#
# Revision: 2
# Processed by: cddbd v1.5.1PL0 Copyright (c) Steve Scherf et al.
# Submitted via: audiograbber 1.83.01
#
DISCID=aa0b4c0d
DTITLE=Geno Delafose - French Rockin' Boogie
DYEAR=1994
DGENRE=Zedeco
TTITLE0=French Rockin' Boogie
TTITLE1=Je ne apprecie pas ça
TTITLE2=Hey, Geno!
TTITLE3=Think It Over
TTITLE4=C'est pas la peine brailler
TTITLE5=Ris et la gres
TTITLE6=One Lie (Leads To Another)
TTITLE7=Jeunes filles de la campagne
TTITLE8=Do The Mill
TTITLE9=JoAnn, JoAnn
TTITLE10=Tes parents ne veulent plus me voir
TTITLE11=Wedding Day Waltz
TTITLE12=Watch Your Step
EXTD=
EXTT0=
EXTT1=
EXTT2=
EXTT3=
EXTT4=
EXTT5=
EXTT6=
EXTT7=
EXTT8=
EXTT9=
EXTT10=
EXTT11=
EXTT12=
PLAYORDER=
